<svg width="43" height="43" viewBox="0 0 43 43" fill="none" xmlns="http://www.w3.org/2000/svg">
<path d="M26.5352 2.50684C26.7623 2.48794 26.9923 2.50803 27.2119 2.56738C27.4316 2.62677 27.6395 2.72453 27.8223 2.85742C28.005 2.9903 28.1603 3.157 28.2764 3.34961C28.3926 3.54256 28.4671 3.75756 28.4912 3.98145C28.5153 4.20557 28.4885 4.43178 28.4141 4.64453L18.0156 34.3584C17.8652 34.7881 17.5342 35.1275 17.1201 35.3203C16.7068 35.5128 16.2294 35.5519 15.7881 35.4326C15.3466 35.3133 14.958 35.0392 14.7236 34.6504C14.4871 34.2578 14.4344 33.7888 14.5859 33.3555L24.9844 3.6416C25.0587 3.42935 25.1786 3.23645 25.333 3.07227C25.4874 2.9081 25.6742 2.77546 25.8799 2.67969C26.0854 2.58397 26.308 2.52577 26.5352 2.50684ZM12.4014 9.35547C12.6296 9.3555 12.8567 9.39477 13.0703 9.47266C13.2841 9.55065 13.4828 9.66601 13.6523 9.81543H13.6514C13.8212 9.96448 13.9605 10.1449 14.0566 10.3486C14.1529 10.5527 14.2031 10.7744 14.2031 11C14.2031 11.2256 14.1529 11.4473 14.0566 11.6514C13.9604 11.8552 13.8214 12.0364 13.6514 12.1855L13.6504 12.1846L5.89746 19L13.6514 25.8154C13.9948 26.1173 14.2021 26.5416 14.2021 27C14.2021 27.4583 13.9947 27.8827 13.6514 28.1846C13.3101 28.4845 12.8597 28.6445 12.4014 28.6445C11.9429 28.6445 11.4917 28.4847 11.1504 28.1846L2.05176 20.1846C1.88197 20.0356 1.74357 19.855 1.64746 19.6514C1.55113 19.4473 1.5 19.2257 1.5 19C1.5 18.7743 1.55113 18.5527 1.64746 18.3486C1.74357 18.145 1.88198 17.9644 2.05176 17.8154L11.1504 9.81543L11.2822 9.70996C11.4195 9.61072 11.5711 9.53116 11.7314 9.47266C11.9452 9.39466 12.173 9.35547 12.4014 9.35547ZM30.5986 9.35547C30.827 9.35547 31.0548 9.39466 31.2686 9.47266C31.4822 9.5506 31.6802 9.66615 31.8496 9.81543L40.9482 17.8154L41.0693 17.9326C41.1846 18.0559 41.2804 18.1958 41.3525 18.3486C41.4489 18.5527 41.5 18.7743 41.5 19C41.5 19.2257 41.4489 19.4473 41.3525 19.6514C41.2804 19.8042 41.1846 19.9441 41.0693 20.0674L40.9482 20.1846L31.8496 28.1846C31.6801 28.3336 31.4821 28.4495 31.2686 28.5273C31.0549 28.6052 30.8269 28.6445 30.5986 28.6445C30.3705 28.6445 30.1433 28.6051 29.9297 28.5273C29.716 28.4495 29.5182 28.3336 29.3486 28.1846C29.179 28.0355 29.0403 27.8549 28.9443 27.6514C28.8482 27.4474 28.7979 27.2255 28.7979 27C28.7979 26.7745 28.8482 26.5527 28.9443 26.3486C29.0403 26.145 29.179 25.9646 29.3486 25.8154L37.1016 19L29.3486 12.1846C29.1788 12.0355 29.0395 11.855 28.9434 11.6514C28.8471 11.4473 28.7969 11.2256 28.7969 11C28.7969 10.7744 28.8471 10.5527 28.9434 10.3486C29.0394 10.1452 29.178 9.96439 29.3477 9.81543C29.5172 9.66601 29.7159 9.55065 29.9297 9.47266C30.1433 9.39477 30.3704 9.3555 30.5986 9.35547Z" fill="black" stroke="black"/>
</svg>
