<svg width="34" height="34" viewBox="0 0 34 34" fill="none" xmlns="http://www.w3.org/2000/svg">
<path d="M26.4201 21.3988C30.0326 22.4931 34 23.6938 34 17C34 13.6377 33.003 10.3509 31.135 7.55531C29.267 4.75968 26.612 2.58075 23.5056 1.29406C20.3993 0.00736578 16.9811 -0.329291 13.6835 0.326658C10.3858 0.982607 7.35669 2.6017 4.97919 4.97919C2.6017 7.35669 0.982607 10.3858 0.326658 13.6835C-0.329291 16.9811 0.00736578 20.3993 1.29406 23.5056C2.58075 26.612 4.75968 29.267 7.55531 31.135C10.3509 33.003 13.6377 34 17 34C21.2415 34 20.8803 30.804 20.5041 27.455C20.2406 25.1154 19.9686 22.7014 21.25 21.25C22.2381 20.1301 24.2675 20.7464 26.4201 21.3988ZM17 10.625C16.5814 10.625 16.1669 10.5426 15.7802 10.3824C15.3935 10.2222 15.0421 9.9874 14.7461 9.69141C14.4501 9.39542 14.2153 9.04404 14.0551 8.65731C13.895 8.27059 13.8125 7.8561 13.8125 7.43751C13.8125 7.01892 13.895 6.60443 14.0551 6.2177C14.2153 5.83098 14.4501 5.47959 14.7461 5.1836C15.0421 4.88762 15.3935 4.65283 15.7802 4.49264C16.1669 4.33246 16.5814 4.25001 17 4.25001C17.8454 4.25001 18.6561 4.58583 19.2539 5.1836C19.8517 5.78138 20.1875 6.59213 20.1875 7.43751C20.1875 8.28289 19.8517 9.09364 19.2539 9.69141C18.6561 10.2892 17.8454 10.625 17 10.625ZM26.5625 17C25.7171 17 24.9064 16.6642 24.3086 16.0664C23.7108 15.4686 23.375 14.6579 23.375 13.8125C23.375 12.9671 23.7108 12.1564 24.3086 11.5586C24.9064 10.9608 25.7171 10.625 26.5625 10.625C27.4079 10.625 28.2186 10.9608 28.8164 11.5586C29.4142 12.1564 29.75 12.9671 29.75 13.8125C29.75 14.6579 29.4142 15.4686 28.8164 16.0664C28.2186 16.6642 27.4079 17 26.5625 17ZM10.625 13.8125C10.625 14.2311 10.5426 14.6456 10.3824 15.0323C10.2222 15.419 9.9874 15.7704 9.69141 16.0664C9.39542 16.3624 9.04404 16.5972 8.65731 16.7574C8.27059 16.9176 7.8561 17 7.43751 17C7.01892 17 6.60443 16.9176 6.2177 16.7574C5.83098 16.5972 5.47959 16.3624 5.1836 16.0664C4.88762 15.7704 4.65283 15.419 4.49264 15.0323C4.33246 14.6456 4.25001 14.2311 4.25001 13.8125C4.25001 12.9671 4.58583 12.1564 5.1836 11.5586C5.78138 10.9608 6.59213 10.625 7.43751 10.625C8.28289 10.625 9.09364 10.9608 9.69141 11.5586C10.2892 12.1564 10.625 12.9671 10.625 13.8125ZM11.6875 27.625C10.8421 27.625 10.0314 27.2892 9.43361 26.6914C8.83583 26.0936 8.50001 25.2829 8.50001 24.4375C8.50001 23.5921 8.83583 22.7814 9.43361 22.1836C10.0314 21.5858 10.8421 21.25 11.6875 21.25C12.5329 21.25 13.3436 21.5858 13.9414 22.1836C14.5392 22.7814 14.875 23.5921 14.875 24.4375C14.875 25.2829 14.5392 26.0936 13.9414 26.6914C13.3436 27.2892 12.5329 27.625 11.6875 27.625Z" fill="black"/>
</svg>
