<svg width="78" height="76" viewBox="0 0 78 76" fill="none" xmlns="http://www.w3.org/2000/svg">
<path d="M38.423 6C30.724 5.99901 23.276 8.73806 17.412 13.7269C11.548 18.7157 7.65095 25.6286 6.41829 33.2283C5.18562 40.8279 6.69785 48.6182 10.6843 55.2048C14.6707 61.7913 20.8712 66.7442 28.1757 69.1767C29.8007 69.4692 30.3825 68.4715 30.3825 67.6135C30.3825 66.8433 30.3565 64.8022 30.3467 62.0885C21.328 64.0385 19.4235 57.74 19.4235 57.74C18.8298 55.7801 17.5534 54.0978 15.8257 52.9983C12.9007 50.9865 16.05 51.032 16.05 51.032C18.13 51.318 19.9662 52.5498 21.0127 54.373C21.4519 55.1715 22.0448 55.8752 22.7573 56.4433C23.4698 57.0115 24.2878 57.433 25.164 57.6835C26.0402 57.934 26.9573 58.0085 27.8625 57.9027C28.7676 57.797 29.6429 57.513 30.4377 57.0672C30.5872 55.4227 31.3217 53.8855 32.5015 52.7318C25.306 51.916 17.74 49.134 17.74 36.7093C17.7001 33.4956 18.8934 30.389 21.0745 28.0285C20.0876 25.2313 20.2038 22.1631 21.3995 19.4485C21.3995 19.4485 24.1197 18.5743 30.311 22.7668C35.621 21.3108 41.225 21.3108 46.535 22.7668C52.7295 18.571 55.4465 19.4485 55.4465 19.4485C56.649 22.1623 56.7627 25.2335 55.7715 28.0285C57.9606 30.3887 59.1529 33.5036 59.0995 36.7222C59.0995 49.1795 51.527 51.916 44.3055 52.7188C45.8655 54.3112 46.6617 56.4953 46.4992 58.7183C46.4992 63.0538 46.4602 66.5508 46.4602 67.6135C46.4602 68.4813 47.0387 69.4888 48.693 69.1702C55.9946 66.7335 62.191 61.7782 66.1733 55.1909C70.1557 48.6036 71.6643 40.8143 70.429 33.2165C69.1938 25.6188 65.2955 18.7084 59.4315 13.722C53.5675 8.73548 46.1205 5.99824 38.423 6Z" fill="white"/>
</svg>
