<svg width="27" height="27" viewBox="0 0 27 27" fill="none" xmlns="http://www.w3.org/2000/svg">
<g clip-path="url(#clip0_30_212)">
<path d="M19.2595 0H7.14837C3.20669 0 0 3.20669 0 7.14837V19.2597C0 23.2012 3.20669 26.4079 7.14837 26.4079H19.2597C23.2012 26.4079 26.4079 23.2012 26.4079 19.2597V7.14837C26.4079 3.20669 23.2012 0 19.2595 0V0ZM24.8597 19.2597C24.8597 22.3475 22.3475 24.8597 19.2595 24.8597H7.14837C4.06035 24.8597 1.54814 22.3475 1.54814 19.2597V7.14837C1.54814 4.06035 4.06035 1.54814 7.14837 1.54814H19.2597C22.3475 1.54814 24.8597 4.06035 24.8597 7.14837V19.2597Z" fill="#1A202C"/>
<mask id="path-2-inside-1_30_212" fill="white">
<path d="M13.2041 5.98324C9.22253 5.98324 5.9834 9.22237 5.9834 13.2039C5.9834 17.1855 9.22253 20.4246 13.2041 20.4246C17.1857 20.4246 20.4248 17.1855 20.4248 13.2039C20.4248 9.22237 17.1857 5.98324 13.2041 5.98324ZM13.2041 18.8765C10.0764 18.8765 7.53154 16.3319 7.53154 13.2039C7.53154 10.0762 10.0764 7.53138 13.2041 7.53138C16.332 7.53138 18.8767 10.0762 18.8767 13.2039C18.8767 16.3319 16.332 18.8765 13.2041 18.8765Z"/>
</mask>
<path d="M13.2041 5.98324C9.22253 5.98324 5.9834 9.22237 5.9834 13.2039C5.9834 17.1855 9.22253 20.4246 13.2041 20.4246C17.1857 20.4246 20.4248 17.1855 20.4248 13.2039C20.4248 9.22237 17.1857 5.98324 13.2041 5.98324ZM13.2041 18.8765C10.0764 18.8765 7.53154 16.3319 7.53154 13.2039C7.53154 10.0762 10.0764 7.53138 13.2041 7.53138C16.332 7.53138 18.8767 10.0762 18.8767 13.2039C18.8767 16.3319 16.332 18.8765 13.2041 18.8765Z" fill="#1A202C"/>
<path d="M13.2041 5.98324V2.98324C7.56568 2.98324 2.9834 7.56552 2.9834 13.2039H5.9834H8.9834C8.9834 10.8792 10.8794 8.98324 13.2041 8.98324V5.98324ZM5.9834 13.2039H2.9834C2.9834 18.8424 7.56568 23.4246 13.2041 23.4246V20.4246V17.4246C10.8794 17.4246 8.9834 15.5287 8.9834 13.2039H5.9834ZM13.2041 20.4246V23.4246C18.8425 23.4246 23.4248 18.8424 23.4248 13.2039H20.4248H17.4248C17.4248 15.5287 15.5288 17.4246 13.2041 17.4246V20.4246ZM20.4248 13.2039H23.4248C23.4248 7.56552 18.8425 2.98324 13.2041 2.98324V5.98324V8.98324C15.5288 8.98324 17.4248 10.8792 17.4248 13.2039H20.4248ZM13.2041 18.8765V15.8765C11.7332 15.8765 10.5315 14.6749 10.5315 13.2039H7.53154H4.53154C4.53154 17.9888 8.4196 21.8765 13.2041 21.8765V18.8765ZM7.53154 13.2039H10.5315C10.5315 11.7331 11.7332 10.5314 13.2041 10.5314V7.53138V4.53138C8.41953 4.53138 4.53154 8.41937 4.53154 13.2039H7.53154ZM13.2041 7.53138V10.5314C14.6751 10.5314 15.8767 11.733 15.8767 13.2039H18.8767H21.8767C21.8767 8.41944 17.9889 4.53138 13.2041 4.53138V7.53138ZM18.8767 13.2039H15.8767C15.8767 14.675 14.6752 15.8765 13.2041 15.8765V18.8765V21.8765C17.9889 21.8765 21.8767 17.9887 21.8767 13.2039H18.8767Z" fill="black" mask="url(#path-2-inside-1_30_212)"/>
<path d="M20.5975 3.41885C19.4209 3.41885 18.4639 4.37607 18.4639 5.55249C18.4639 6.72911 19.4209 7.68632 20.5975 7.68632C21.7741 7.68632 22.7313 6.72911 22.7313 5.55249C22.7313 4.37587 21.7741 3.41885 20.5975 3.41885ZM20.5975 6.13798C20.2747 6.13798 20.012 5.87525 20.012 5.55249C20.012 5.22952 20.2747 4.967 20.5975 4.967C20.9205 4.967 21.1832 5.22952 21.1832 5.55249C21.1832 5.87525 20.9205 6.13798 20.5975 6.13798Z" fill="#1A202C"/>
</g>
<defs>
<clipPath id="clip0_30_212">
<rect width="26.4079" height="26.4079" fill="white"/>
</clipPath>
</defs>
</svg>
