<svg width="133" height="133" viewBox="0 0 133 133" fill="none" xmlns="http://www.w3.org/2000/svg">
<g filter="url(#filter0_d_30_428)">
<circle cx="22.5" cy="22.5" r="22.5" transform="matrix(-1 0 0 1 89 30)" fill="white"/>
<circle cx="22.5" cy="22.5" r="21.5" transform="matrix(-1 0 0 1 89 30)" stroke="url(#paint0_linear_30_428)" stroke-width="2"/>
<circle cx="22.5" cy="22.5" r="21.5" transform="matrix(-1 0 0 1 89 30)" stroke="black" stroke-opacity="0.2" stroke-width="2"/>
</g>
<path d="M73.0625 51.5625H61.9438L65.3469 47.475C65.506 47.2835 65.5826 47.0367 65.5597 46.7888C65.5369 46.5409 65.4165 46.3122 65.225 46.1531C65.0335 45.9939 64.7867 45.9174 64.5388 45.9402C64.2909 45.9631 64.0623 46.0835 63.9031 46.275L59.2156 51.9C59.1841 51.9447 59.1559 51.9917 59.1312 52.0406C59.1312 52.0875 59.1313 52.1156 59.0656 52.1625C59.0231 52.2699 59.0009 52.3844 59 52.5C59.0009 52.6155 59.0231 52.73 59.0656 52.8375C59.0656 52.8843 59.0656 52.9125 59.1312 52.9593C59.1559 53.0082 59.1841 53.0552 59.2156 53.1L63.9031 58.725C63.9913 58.8308 64.1017 58.9159 64.2264 58.9742C64.3512 59.0326 64.4873 59.0627 64.625 59.0625C64.844 59.0629 65.0563 58.9866 65.225 58.8468C65.3199 58.7681 65.3984 58.6715 65.4559 58.5624C65.5134 58.4533 65.5489 58.334 65.5602 58.2112C65.5715 58.0884 65.5585 57.9646 65.5219 57.8468C65.4853 57.7291 65.4258 57.6197 65.3469 57.525L61.9438 53.4375H73.0625C73.3111 53.4375 73.5496 53.3387 73.7254 53.1629C73.9012 52.9871 74 52.7486 74 52.5C74 52.2513 73.9012 52.0129 73.7254 51.837C73.5496 51.6612 73.3111 51.5625 73.0625 51.5625Z" fill="url(#paint1_linear_30_428)"/>
<path d="M73.0625 51.5625H61.9438L65.3469 47.475C65.506 47.2835 65.5826 47.0367 65.5597 46.7888C65.5369 46.5409 65.4165 46.3122 65.225 46.1531C65.0335 45.9939 64.7867 45.9174 64.5388 45.9402C64.2909 45.9631 64.0623 46.0835 63.9031 46.275L59.2156 51.9C59.1841 51.9447 59.1559 51.9917 59.1312 52.0406C59.1312 52.0875 59.1313 52.1156 59.0656 52.1625C59.0231 52.2699 59.0009 52.3844 59 52.5C59.0009 52.6155 59.0231 52.73 59.0656 52.8375C59.0656 52.8843 59.0656 52.9125 59.1312 52.9593C59.1559 53.0082 59.1841 53.0552 59.2156 53.1L63.9031 58.725C63.9913 58.8308 64.1017 58.9159 64.2264 58.9742C64.3512 59.0326 64.4873 59.0627 64.625 59.0625C64.844 59.0629 65.0563 58.9866 65.225 58.8468C65.3199 58.7681 65.3984 58.6715 65.4559 58.5624C65.5134 58.4533 65.5489 58.334 65.5602 58.2112C65.5715 58.0884 65.5585 57.9646 65.5219 57.8468C65.4853 57.7291 65.4258 57.6197 65.3469 57.525L61.9438 53.4375H73.0625C73.3111 53.4375 73.5496 53.3387 73.7254 53.1629C73.9012 52.9871 74 52.7486 74 52.5C74 52.2513 73.9012 52.0129 73.7254 51.837C73.5496 51.6612 73.3111 51.5625 73.0625 51.5625Z" fill="black" fill-opacity="0.2"/>
<defs>
<filter id="filter0_d_30_428" x="0" y="0" width="133" height="133" filterUnits="userSpaceOnUse" color-interpolation-filters="sRGB">
<feFlood flood-opacity="0" result="BackgroundImageFix"/>
<feColorMatrix in="SourceAlpha" type="matrix" values="0 0 0 0 0 0 0 0 0 0 0 0 0 0 0 0 0 0 127 0" result="hardAlpha"/>
<feOffset dy="14"/>
<feGaussianBlur stdDeviation="22"/>
<feColorMatrix type="matrix" values="0 0 0 0 0.0561111 0 0 0 0 0.0777333 0 0 0 0 0.133333 0 0 0 0.08 0"/>
<feBlend mode="normal" in2="BackgroundImageFix" result="effect1_dropShadow_30_428"/>
<feBlend mode="normal" in="SourceGraphic" in2="effect1_dropShadow_30_428" result="shape"/>
</filter>
<linearGradient id="paint0_linear_30_428" x1="-5.75222e-07" y1="31.7959" x2="34.6715" y2="15.7618" gradientUnits="userSpaceOnUse">
<stop stop-color="#D68BD8"/>
<stop offset="1" stop-color="#F9F878"/>
</linearGradient>
<linearGradient id="paint1_linear_30_428" x1="59" y1="55.2109" x2="69.9662" y2="49.4156" gradientUnits="userSpaceOnUse">
<stop stop-color="#D68BD8"/>
<stop offset="1" stop-color="#F9F878"/>
</linearGradient>
</defs>
</svg>
