<svg width="23" height="23" viewBox="0 0 23 23" fill="none" xmlns="http://www.w3.org/2000/svg">
<g clip-path="url(#clip0_37_110)">
<path d="M22.3397 22.3452V22.3442H22.3453V14.1491C22.3453 10.14 21.4822 7.05175 16.7953 7.05175C14.5422 7.05175 13.0302 8.28818 12.4129 9.46037H12.3477V7.42603H7.90381V22.3442H12.5311V14.9573C12.5311 13.0123 12.8998 11.1316 15.3084 11.1316C17.6817 11.1316 17.7171 13.3512 17.7171 15.082V22.3452H22.3397Z" fill="#1A202C"/>
<path d="M0.368652 7.42697H5.00155V22.3452H0.368652V7.42697Z" fill="#1A202C"/>
<path d="M2.68328 0C1.20198 0 0 1.20198 0 2.68328C0 4.16458 1.20198 5.3917 2.68328 5.3917C4.16458 5.3917 5.36657 4.16458 5.36657 2.68328C5.36564 1.20198 4.16365 0 2.68328 0V0Z" fill="#1A202C"/>
</g>
<defs>
<clipPath id="clip0_37_110">
<rect width="22.3452" height="22.3452" fill="white"/>
</clipPath>
</defs>
</svg>
