<svg width="34" height="34" viewBox="0 0 34 34" fill="none" xmlns="http://www.w3.org/2000/svg">
<g clip-path="url(#clip0_38_138)">
<path fill-rule="evenodd" clip-rule="evenodd" d="M24.4375 2.64766C26.2055 0.830789 30.6276 4.01191 24.4375 8.10041C18.2474 4.01191 22.6695 0.830789 24.4375 2.64766ZM19.125 10.6249C19.125 12.3157 18.4534 13.9372 17.2578 15.1327C16.0623 16.3283 14.4408 16.9999 12.75 16.9999C11.0592 16.9999 9.43774 16.3283 8.24219 15.1327C7.04665 13.9372 6.375 12.3157 6.375 10.6249C6.375 8.93416 7.04665 7.31265 8.24219 6.11711C9.43774 4.92156 11.0592 4.24991 12.75 4.24991C14.4408 4.24991 16.0623 4.92156 17.2578 6.11711C18.4534 7.31265 19.125 8.93416 19.125 10.6249ZM0 27.6249C0 29.7499 2.125 29.7499 2.125 29.7499H23.375C23.375 29.7499 25.5 29.7499 25.5 27.6249C25.5 25.4999 23.375 19.1249 12.75 19.1249C2.125 19.1249 0 25.4999 0 27.6249ZM28.6875 10.4337C31.6349 7.40554 39.0044 12.7074 28.6875 19.5223C18.3727 12.7074 25.7401 7.40341 28.6875 10.4337ZM31.875 4.60054C33.0544 3.38929 36.0018 5.51004 31.875 8.23641C27.7482 5.51004 30.6956 3.38716 31.875 4.60054Z" fill="black"/>
</g>
<defs>
<clipPath id="clip0_38_138">
<rect width="34" height="34" fill="white"/>
</clipPath>
</defs>
</svg>
