<svg width="38" height="38" viewBox="0 0 38 38" fill="none" xmlns="http://www.w3.org/2000/svg">
<g clip-path="url(#clip0_38_134)">
<path d="M36.8516 1.00587C36.8697 1.00955 36.8872 1.01576 36.9033 1.02442L36.9473 1.05665C36.9719 1.08225 36.99 1.11356 36.9971 1.14845C37.0044 1.18439 37.001 1.22184 36.9873 1.25587L36.9863 1.25782L23.166 35.8066C23.1126 35.9401 23.0234 36.0566 22.9082 36.1426C22.8077 36.2176 22.6905 36.2649 22.5674 36.2852L23.2461 34.5908L34.4873 6.48927L32.8516 5.41114L14.4863 23.7764L14.917 24.4531L21.4746 34.7559L22.4541 36.2949C22.3309 36.297 22.2088 36.2722 22.0977 36.2178C21.9686 36.1546 21.8584 36.0568 21.7812 35.9356L14.2344 24.0732L14.1152 23.8857L13.9268 23.7656L2.06445 16.2188L2.0625 16.2178L1.97656 16.1543C1.89474 16.085 1.82788 15.9993 1.78027 15.9024C1.7255 15.7908 1.69897 15.6677 1.70117 15.544L3.24219 16.5234L13.5469 23.0781L14.2236 23.5088L32.5869 5.14552L31.5088 3.51075L3.40723 14.751L1.71191 15.4297C1.73237 15.3069 1.78058 15.19 1.85547 15.0899C1.94168 14.9746 2.05868 14.8853 2.19238 14.832H2.19336L36.7422 1.01661L36.7441 1.01563C36.7782 1.00194 36.8156 0.99859 36.8516 1.00587Z" fill="black" stroke="black" stroke-width="2"/>
</g>
<defs>
<clipPath id="clip0_38_134">
<rect width="38" height="38" fill="white"/>
</clipPath>
</defs>
</svg>
