<svg width="31" height="32" viewBox="0 0 31 32" fill="none" xmlns="http://www.w3.org/2000/svg">
<path d="M26.4711 4.65209C25.0437 3.17109 23.3436 1.997 21.47 1.19829C19.5964 0.399593 17.5868 -0.00772162 15.5584 0.00011085C7.05908 0.00011085 0.132346 7.11609 0.12456 15.8521C0.12456 18.65 0.836891 21.372 2.18176 23.782L0 32L8.18207 29.796C10.4446 31.0645 12.9811 31.7281 15.5584 31.726H15.5662C24.0674 31.726 30.9922 24.61 31 15.8661C31.0017 13.7822 30.6023 11.7185 29.8247 9.79396C29.0471 7.86938 27.9086 6.12188 26.4711 4.65209ZM15.5584 29.042C13.2602 29.0402 11.0046 28.4047 9.02674 27.202L8.55964 26.914L3.70567 28.222L5.00188 23.356L4.69827 22.854C3.41336 20.7547 2.7338 18.3241 2.73838 15.8441C2.73838 8.59208 8.49347 2.6761 15.5662 2.6761C17.2511 2.673 18.92 3.01265 20.4766 3.67548C22.0332 4.33831 23.4468 5.31121 24.6357 6.53809C25.8286 7.76038 26.7743 9.21317 27.4183 10.8127C28.0623 12.4123 28.3919 14.127 28.3881 15.8581C28.3803 23.136 22.6252 29.042 15.5584 29.042ZM22.5941 19.174C22.2107 18.976 20.317 18.018 19.9608 17.882C19.6066 17.7521 19.3477 17.684 19.0947 18.08C18.8359 18.474 18.0963 19.372 17.8744 19.63C17.6526 19.896 17.4229 19.926 17.0375 19.73C16.6541 19.53 15.4105 19.114 13.9391 17.76C12.7908 16.7101 12.022 15.4101 11.7924 15.0161C11.5705 14.6201 11.771 14.4081 11.9636 14.2101C12.133 14.0341 12.3471 13.7461 12.5397 13.5181C12.7344 13.2901 12.7986 13.1221 12.9251 12.8581C13.0516 12.5901 12.9913 12.3621 12.8959 12.1641C12.7986 11.9661 12.0298 10.0121 11.7048 9.22408C11.3934 8.44608 11.0762 8.55408 10.8387 8.54408C10.6168 8.53008 10.358 8.53008 10.0991 8.53008C9.90368 8.53519 9.71135 8.58171 9.5342 8.66671C9.35704 8.75171 9.19886 8.87337 9.06956 9.02408C8.71534 9.42008 7.7247 10.3781 7.7247 12.3321C7.7247 14.2861 9.10654 16.1641 9.30117 16.4301C9.4919 16.6961 12.0142 20.694 15.8854 22.414C16.8001 22.824 17.5202 23.066 18.0827 23.25C19.0072 23.554 19.8421 23.508 20.5077 23.41C21.2473 23.294 22.7868 22.45 23.1118 21.524C23.431 20.596 23.431 19.804 23.3337 19.638C23.2383 19.47 22.9795 19.372 22.5941 19.174Z" fill="black"/>
</svg>
